<svg width="200" height="150" viewBox="0 0 200 150" xmlns="http://www.w3.org/2000/svg">
  <defs>
    <!-- Gradients for 3D effect -->
    <linearGradient id="blueGradient" x1="0%" y1="0%" x2="100%" y2="100%">
      <stop offset="0%" style="stop-color:#4A90E2;stop-opacity:1" />
      <stop offset="100%" style="stop-color:#357ABD;stop-opacity:1" />
    </linearGradient>
    <linearGradient id="navyGradient" x1="0%" y1="0%" x2="100%" y2="100%">
      <stop offset="0%" style="stop-color:#2B3A67;stop-opacity:1" />
      <stop offset="100%" style="stop-color:#1E2A4A;stop-opacity:1" />
    </linearGradient>
    <!-- Shadow filter -->
    <filter id="shadow" x="-50%" y="-50%" width="200%" height="200%">
      <feDropShadow dx="4" dy="4" stdDeviation="3" flood-color="#000000" flood-opacity="0.3"/>
    </filter>
  </defs>
  
  <!-- Letter "n" -->
  <path d="M 20 40 
           L 20 110 
           L 35 110 
           L 35 70
           Q 35 55 45 55
           L 55 55
           Q 75 55 75 70
           L 75 110
           L 90 110
           L 90 70
           Q 90 40 65 40
           L 45 40
           Q 20 40 20 40 Z" 
        fill="url(#blueGradient)" 
        filter="url(#shadow)" />
  
  <!-- Letter "x" -->
  <g fill="url(#navyGradient)" filter="url(#shadow)">
    <!-- Top left to bottom right stroke -->
    <path d="M 110 40 L 130 40 L 155 75 L 180 40 L 200 40 L 165 85 L 200 110 L 180 110 L 155 95 L 130 110 L 110 110 L 145 85 Z" />
  </g>
</svg>