<svg width="200" height="200" viewBox="0 0 200 200" xmlns="http://www.w3.org/2000/svg">
  <!-- Blue "n" -->
  <path d="M20 50 L20 150 L40 150 L40 90 Q40 70 60 70 L80 70 Q100 70 100 90 L100 150 L120 150 L120 90 Q120 50 80 50 L60 50 Q20 50 20 50 Z" fill="#2B7CB8" stroke="#1E5A87" stroke-width="1"/>
  
  <!-- Dark blue "x" -->
  <path d="M140 50 L170 90 L200 50 L180 50 L160 75 L140 50 Z M140 150 L160 125 L180 150 L200 150 L170 110 L140 150 Z" fill="#2B3A67" stroke="#1A2547" stroke-width="1"/>
  
  <!-- Shadow effects -->
  <defs>
    <filter id="shadow" x="-20%" y="-20%" width="140%" height="140%">
      <feDropShadow dx="3" dy="3" stdDeviation="2" flood-color="#000000" flood-opacity="0.3"/>
    </filter>
  </defs>
  
  <!-- Apply shadow to both letters -->
  <g filter="url(#shadow)">
    <path d="M20 50 L20 150 L40 150 L40 90 Q40 70 60 70 L80 70 Q100 70 100 90 L100 150 L120 150 L120 90 Q120 50 80 50 L60 50 Q20 50 20 50 Z" fill="#2B7CB8"/>
    <path d="M140 50 L170 90 L200 50 L180 50 L160 75 L140 50 Z M140 150 L160 125 L180 150 L200 150 L170 110 L140 150 Z" fill="#2B3A67"/>
  </g>
</svg>